<svg role="img" viewBox="0 0 24 24" xmlns="http://www.w3.org/2000/svg">
  <title>Jenkins</title>
  <path d="M2.872 24h-.975a3.866 3.866 0 01-.07-.197c-.215-.666-.594-1.49-.692-2.154-.146-.984.78-1.039 1.374-1.465.915-.66 1.635-1.025 2.627-1.62.295-.179 1.182-.624 1.281-.829.201-.408-.345-.982-.49-1.3-.225-.507-.345-.937-.376-1.435-.824-.13-1.455-.627-1.844-1.185-.63-.925-1.066-2.635-.525-3.936.045-.103.254-.305.285-.463.06-.308-.105-.72-.12-1.048-.06-1.692.284-3.15 1.425-3.66.463-1.84 2.113-2.453 3.673-3.367.58-.342 1.224-.562 1.89-.807 2.372-.877 6.027-.712 7.994.783.836.633 2.176 1.97 2.656 2.939 1.262 2.555 1.17 6.825.287 9.934-.12.421-.29 1.032-.533 1.533-.168.35-.689 1.05-.625 1.36.064.314 1.19 1.17 1.432 1.395.434.422 1.26.975 1.324 1.5.07.557-.248 1.336-.41 1.875-.217.721-.436 1.441-.654 2.131H2.87z"/>
</svg>
